PathFileType   4   (X/Y/Z)
DataRate	CameraRate	NumFrames	NumMarkers	Units	OrigDataRate	OrigDataStartFrame	OrigNumFrames
120.0	120.0	9	37	mm	120.0	139	184
Frame#	Time	midhip	hip_r	hip_l	knee_r	knee_l	ankle_r	ankle_l	midasis	asis_r	asis_l	psis_r	psis_l	epicondLat_r	epicondLat_l	epicondMed_r	epicondMed_l	malleolusLat_r	malleolusLat_l	malleolusMedv_r	malleolusMedv_l	neck	subclavicle_r	subclavicle_l	sternalnotch	xyphoidprocess	thighwand_r	thighwand_l	upperleg1_r	upperleg1_l	upperleg2_r	upperleg2_l	shankwand_r	shankwand_l	lowerleg1_r	lowerleg1_l	toe_r	toe_l
 	 	X1	Y1	Z1	X2	Y2	Z2	X3	Y3	Z3	X4	Y4	Z4	X5	Y5	Z5	X6	Y6	Z6	X7	Y7	Z7	X8	Y8	Z8	X9	Y9	Z9	X10	Y10	Z10	X11	Y11	Z11	X12	Y12	Z12	X13	Y13	Z13	X14	Y14	Z14	X15	Y15	Z15	X16	Y16	Z16	X17	Y17	Z17	X18	Y18	Z18	X19	Y19	Z19	X20	Y20	Z20	X21	Y21	Z21	X22	Y22	Z22	X23	Y23	Z23	X24	Y24	Z24	X25	Y25	Z25	X26	Y26	Z26	X27	Y27	Z27	X28	Y28	Z28	X29	Y29	Z29	X30	Y30	Z30	X31	Y31	Z31	X32	Y32	Z32	X33	Y33	Z33	X34	Y34	Z34	X35	Y35	Z35	X36	Y36	Z36	X37	Y37	Z37

	139	1.35833	-309.547	746.707	270.188	-328.317	746.799	330.112	-312.449	747.100	200.766	-338.197	409.006	290.357	-193.883	439.223	186.697	-367.785	65.649	259.842	-274.020	99.926	153.365	-248.792	813.939	274.377	-261.131	813.705	374.954	-236.454	814.172	173.801	-407.558	859.076	286.760	-402.923	855.866	232.049	-348.670	402.997	344.015	-189.820	443.265	132.499	-323.419	418.732	247.667	-190.280	406.261	227.451	-381.248	63.704	294.788	-274.766	103.717	116.567	-364.831	70.612	234.987	-272.383	98.510	183.020	-391.230	1221.405	258.340	-285.316	1164.772	309.695	-279.166	1168.977	234.031	-296.743	1165.293	269.195	-266.126	1083.920	269.577	-253.473	518.872	429.574	-99.357	602.494	199.167	-319.213	579.460	390.380	-180.906	633.562	155.652	-318.344	496.566	366.796	-159.237	548.769	155.704	-397.504	168.712	378.555	-218.434	222.083	54.895	-386.038	139.723	301.614	-252.852	183.897	122.955	-275.633	36.656	287.505	-182.746	52.122	145.870
	140	1.36667	-305.575	745.262	270.018	-323.216	746.293	330.051	-307.447	746.723	200.694	-335.886	408.733	290.152	-188.121	438.751	187.158	-367.780	65.582	259.690	-253.933	95.595	153.815	-243.682	813.431	274.329	-255.952	813.096	374.991	-231.411	813.766	173.668	-402.305	858.710	286.760	-397.785	855.469	232.055	-346.061	402.765	343.872	-183.931	442.756	132.967	-319.521	418.656	247.333	-184.136	405.744	228.083	-381.082	63.710	294.702	-254.453	99.272	117.002	-364.673	70.517	234.869	-252.578	94.253	183.497	-386.491	1220.768	258.868	-280.225	1164.184	309.645	-274.523	1168.482	233.837	-291.890	1164.739	269.158	-261.188	1083.398	269.272	-249.470	518.077	428.885	-94.299	602.140	199.711	-314.904	579.153	390.132	-175.791	633.040	156.096	-314.194	496.505	366.549	-153.671	548.333	156.276	-396.249	168.743	378.521	-202.397	219.906	55.606	-385.176	139.652	301.727	-234.483	180.735	123.004	-275.540	36.624	287.342	-160.641	51.403	147.616
	141	1.37500	-301.203	743.971	270.383	-318.055	745.796	329.972	-302.398	746.269	200.602	-333.522	408.440	290.101	-182.495	438.153	187.560	-367.796	65.510	259.616	-233.739	91.688	154.448	-238.515	812.894	274.210	-250.710	812.525	374.973	-226.320	813.263	173.447	-396.958	858.306	286.662	-392.305	854.948	231.999	-343.457	402.540	343.874	-178.282	442.086	133.365	-316.644	418.577	247.128	-178.830	405.136	228.528	-380.940	63.706	294.691	-234.124	95.264	117.623	-364.659	70.467	234.842	-232.775	90.412	184.135	-381.746	1220.042	259.394	-275.117	1163.624	309.488	-269.820	1167.915	233.656	-286.995	1164.154	269.065	-256.177	1082.857	269.032	-245.539	517.333	428.390	-89.285	601.580	199.910	-311.091	578.835	390.080	-170.868	632.373	156.339	-310.624	496.332	366.428	-148.632	547.716	156.572	-395.012	168.762	378.608	-186.653	218.060	56.379	-384.325	139.594	301.975	-219.087	177.519	123.783	-275.490	36.593	287.250	-138.683	51.102	149.580
	142	1.38333	-293.583	745.573	271.731	-312.800	745.275	329.845	-297.208	745.730	200.466	-331.064	408.107	290.145	-177.014	437.442	187.912	-367.806	65.441	259.583	-213.520	88.257	155.257	-233.264	812.340	274.036	-245.421	811.985	374.908	-221.108	812.694	173.164	-391.931	857.893	286.475	-386.711	854.334	231.905	-340.860	402.302	343.953	-172.863	441.267	133.705	-312.491	418.091	247.514	-174.502	404.458	228.716	-380.806	63.701	294.715	-213.870	91.738	118.422	-364.660	70.404	234.841	-212.889	87.097	184.901	-376.970	1219.257	259.841	-269.943	1163.115	309.220	-265.162	1167.269	233.386	-282.093	1163.550	268.896	-251.151	1082.299	268.810	-241.745	516.602	428.109	-84.328	600.825	199.805	-307.415	578.544	390.149	-166.103	631.579	156.357	-306.643	496.167	366.691	-144.135	546.951	156.573	-393.789	168.762	378.750	-171.292	216.572	57.202	-383.634	139.761	302.062	-201.976	174.943	124.300	-275.473	36.552	287.195	-116.927	51.272	151.671
	143	1.39167	-292.712	741.400	272.612	-307.510	744.748	329.713	-291.985	745.120	200.326	-328.493	407.752	290.226	-171.665	436.626	188.233	-367.787	65.379	259.563	-193.359	85.350	156.231	-227.977	811.748	273.823	-240.094	811.458	374.811	-215.860	812.038	172.835	-386.816	857.432	286.214	-381.091	853.681	231.759	-338.258	402.053	344.052	-167.658	440.315	134.005	-309.674	417.519	248.077	-169.634	403.627	228.883	-380.673	63.708	294.740	-193.778	88.732	119.388	-364.612	70.326	234.833	-193.031	84.311	185.818	-372.138	1218.396	260.182	-264.731	1162.600	308.884	-260.545	1166.740	233.025	-277.193	1162.990	268.660	-246.046	1081.818	268.361	-238.108	515.857	428.031	-79.439	599.881	199.441	-302.935	578.273	390.110	-161.544	630.612	156.219	-302.984	496.083	367.015	-139.594	546.085	156.444	-392.605	168.759	378.879	-156.386	215.446	58.068	-382.760	141.186	302.385	-185.007	172.704	124.922	-275.480	36.505	287.152	-95.428	51.953	153.806
	144	1.40000	-283.836	743.851	273.744	-302.188	744.213	329.600	-286.737	744.440	200.204	-325.808	407.389	290.304	-166.441	435.719	188.526	-367.712	65.329	259.532	-173.341	83.008	157.358	-222.646	811.106	273.595	-234.720	810.929	374.704	-210.573	811.284	172.486	-381.634	856.944	285.952	-375.449	853.009	231.578	-335.641	401.799	344.128	-162.651	439.248	134.273	-307.329	417.268	248.223	-164.722	402.677	228.994	-380.533	63.732	294.737	-173.926	86.275	120.507	-364.525	70.265	234.805	-173.385	82.032	186.893	-367.385	1217.386	260.599	-259.534	1162.002	308.516	-255.822	1166.223	232.578	-272.240	1162.378	268.340	-240.782	1081.328	267.783	-234.617	515.080	428.118	-74.606	598.757	198.863	-298.490	577.896	390.046	-157.003	629.537	155.945	-299.637	496.028	367.131	-135.046	545.043	156.197	-391.500	168.772	378.940	-141.965	214.666	58.970	-381.680	141.369	302.823	-168.915	170.711	125.699	-275.490	36.465	287.109	-74.244	53.158	155.912
	145	1.40833	-278.579	743.196	273.856	-296.834	743.657	329.517	-281.459	743.697	200.112	-323.037	407.022	290.350	-161.359	434.727	188.797	-367.572	65.289	259.479	-153.531	81.261	158.632	-217.271	810.410	273.375	-229.298	810.378	374.602	-205.244	810.441	172.148	-376.260	856.424	285.719	-370.039	852.360	231.379	-333.009	401.537	344.160	-157.845	438.080	134.514	-303.503	417.020	248.289	-160.263	401.676	229.097	-380.378	63.777	294.693	-154.376	84.388	121.774	-364.612	70.201	234.687	-153.864	80.332	188.143	-362.644	1216.285	261.041	-254.231	1161.329	308.100	-251.024	1165.231	232.046	-267.199	1161.503	267.969	-235.558	1080.523	267.559	-231.219	514.264	428.308	-69.818	597.463	198.120	-294.465	577.459	390.074	-152.437	628.372	155.531	-295.927	495.929	367.263	-130.657	543.818	155.848	-390.480	168.813	378.918	-128.075	214.170	59.884	-381.293	141.109	302.226	-153.338	169.077	126.636	-275.470	36.442	287.064	-53.429	54.883	157.925
	146	1.41667	-275.666	740.484	273.284	-291.454	743.060	329.459	-276.150	742.904	200.045	-320.210	406.650	290.353	-156.437	433.654	189.064	-367.379	65.258	259.405	-133.972	80.121	160.047	-211.853	809.654	273.180	-223.836	809.776	374.513	-199.870	809.531	171.847	-370.740	855.867	285.552	-364.782	851.718	231.194	-330.349	401.264	344.142	-153.243	436.818	134.750	-299.333	416.689	248.436	-155.811	400.509	229.077	-380.205	63.838	294.615	-135.192	83.069	123.184	-364.713	70.124	234.510	-134.431	79.266	189.566	-357.707	1215.256	261.267	-248.899	1160.604	307.600	-246.246	1164.362	231.513	-262.156	1160.676	267.561	-230.376	1079.751	267.082	-227.838	513.415	428.531	-65.072	596.008	197.266	-290.377	577.069	390.135	-147.948	627.071	155.046	-292.071	495.757	367.432	-126.326	542.436	155.399	-389.516	168.886	378.827	-114.808	213.873	60.786	-380.554	141.181	302.016	-138.143	167.803	127.773	-275.428	36.433	287.015	-33.034	57.099	159.790
	147	1.42500	-271.354	738.772	272.684	-286.047	742.416	329.426	-270.810	742.070	200.005	-317.352	406.274	290.325	-151.662	432.509	189.346	-367.157	65.235	259.316	-114.718	79.585	161.589	-206.394	808.837	273.019	-218.335	809.108	374.438	-194.453	808.565	171.599	-365.024	855.248	285.458	-359.397	851.023	231.033	-327.645	400.978	344.093	-148.818	435.475	135.001	-295.244	416.289	248.593	-151.415	399.175	228.919	-380.017	63.912	294.517	-116.440	82.304	124.729	-364.369	70.029	234.480	-115.292	78.770	191.105	-352.651	1214.300	261.278	-243.596	1159.839	307.019	-241.395	1163.743	230.956	-257.087	1159.958	267.074	-225.143	1079.100	266.256	-224.398	512.554	428.727	-60.356	594.422	196.356	-286.269	576.658	390.142	-143.447	625.640	154.554	-288.224	495.560	367.576	-122.017	540.924	154.890	-388.562	168.988	378.699	-102.216	213.719	61.674	-379.566	141.534	302.251	-123.366	166.891	128.966	-275.382	36.431	286.968	-13.107	59.759	161.462
